<svg width="16" height="17" viewBox="0 0 16 17" fill="#e4e4e7" xmlns="http://www.w3.org/2000/svg">
  <path fill-rule="evenodd" clip-rule="evenodd"
    d="M10.966 4.79647C10.1477 4.01634 9.05592 3.59009 7.92594 3.60818C5.859 3.60818 4.10372 5.00155 3.4764 6.87949V6.87953C3.14464 7.86272 3.14464 8.93035 3.47638 9.91354H3.47639C4.10371 11.7915 5.859 13.1849 7.92594 13.1849C8.99761 13.1849 9.91245 12.9094 10.6242 12.4268L10.6242 12.4268V12.4248C11.4586 11.8719 12.0297 11.0013 12.2066 10.0161H7.92595V6.96394H15.4015C15.494 7.49676 15.5382 8.03561 15.5382 8.57647C15.5382 10.9892 14.6757 13.03 13.1798 14.4073H13.1772L13.1797 14.4093C11.8668 15.6217 10.0653 16.3235 7.92594 16.3235C4.9301 16.3235 2.1896 14.6345 0.844481 11.9564L0.844469 11.9564C-0.28149 9.71654 -0.28149 7.07657 0.844469 4.83672H0.844508L0.844467 4.83668C2.18958 2.16052 4.93009 0.469576 7.92594 0.469576C9.89436 0.447458 11.7944 1.18737 13.23 2.5345L10.966 4.79647Z"
    fill="#e4e4e7" />
</svg>